<svg width="156" height="213" viewBox="0 0 156 213" fill="none" xmlns="http://www.w3.org/2000/svg">
<path d="M0.242969 213V176.4L70.143 119.1C83.943 107.7 93.443 98.6 98.643 91.8C103.843 84.8 106.443 77.1 106.443 68.7C106.443 60.1 103.843 53.4 98.643 48.6C93.443 43.8 86.643 41.4 78.243 41.4C70.443 41.4 63.343 43.6 56.943 48C50.743 52.2 43.543 59.4 35.343 69.6L2.94297 43.5C13.943 28.5 25.243 17.5 36.843 10.5C48.643 3.49999 63.443 -1.14441e-05 81.243 -1.14441e-05C103.043 -1.14441e-05 120.543 5.99999 133.743 18C146.943 29.8 153.543 45.6 153.543 65.4C153.543 76.8 151.343 87.1 146.943 96.3C142.543 105.3 136.843 113.3 129.843 120.3C122.843 127.1 112.343 135.9 98.343 146.7L64.143 173.1H155.643V213H0.242969Z" fill="url(#paint0_linear_113_325)" fill-opacity="0.37"/>
<defs>
<linearGradient id="paint0_linear_113_325" x1="79" y1="-49" x2="79" y2="303" gradientUnits="userSpaceOnUse">
<stop stop-color="#3D4F3B"/>
<stop offset="1" stop-color="#3D4F3B" stop-opacity="0"/>
</linearGradient>
</defs>
</svg>
