<svg width="158" height="214" viewBox="0 0 158 214" fill="none" xmlns="http://www.w3.org/2000/svg">
<path d="M82.1359 213.6C47.9359 213.6 20.6359 201.5 0.235938 177.3L32.0359 147C47.0359 163.8 63.9359 172.2 82.7359 172.2C91.5359 172.2 98.6359 169.9 104.036 165.3C109.636 160.5 112.436 154.1 112.436 146.1C112.436 137.5 108.836 130.9 101.636 126.3C94.4359 121.7 84.3359 119.4 71.3359 119.4H52.1359L44.9359 90L95.0359 39.6H12.5359V-1.43051e-05H154.436V34.8L101.336 85.5C138.936 91.9 157.736 111.7 157.736 144.9C157.736 165.1 150.836 181.6 137.036 194.4C123.436 207.2 105.136 213.6 82.1359 213.6Z" fill="url(#paint0_linear_113_326)" fill-opacity="0.37"/>
<defs>
<linearGradient id="paint0_linear_113_326" x1="82" y1="-52" x2="82" y2="300" gradientUnits="userSpaceOnUse">
<stop stop-color="#3D4F3B"/>
<stop offset="1" stop-color="#3D4F3B" stop-opacity="0"/>
</linearGradient>
</defs>
</svg>
