<svg width="691" height="346" viewBox="0 0 691 346" fill="none" xmlns="http://www.w3.org/2000/svg">
<path d="M677.481 345.175C684.722 345.175 690.618 339.3 690.343 332.064C687.047 245.327 651.147 162.826 589.544 101.223C524.844 36.5229 437.092 0.174812 345.592 0.174805C254.092 0.174798 166.34 36.5229 101.64 101.223C40.0369 162.826 4.13649 245.327 0.840871 332.064C0.565932 339.3 6.46209 345.175 13.7033 345.175C20.9446 345.175 26.7866 339.3 27.0841 332.065C30.3651 252.285 63.4973 176.45 120.182 119.765C179.965 59.983 261.047 26.3976 345.592 26.3976C430.137 26.3976 511.219 59.983 571.001 119.765C627.687 176.45 660.819 252.286 664.1 332.065C664.397 339.3 670.239 345.175 677.481 345.175Z" fill="#303030"/>
</svg>
