<svg width="18" height="25" viewBox="0 0 18 25" fill="none" xmlns="http://www.w3.org/2000/svg">
<path d="M7.245 17.265L6.545 11.595L6.72 11.42C11.0367 11.2567 13.195 9.92667 13.195 7.43C13.195 6.42667 12.8333 5.62167 12.11 5.015C11.3867 4.40833 10.4067 4.105 9.17 4.105C7.09333 4.105 5.19167 5.02667 3.465 6.87L0.84 4.07C3.12667 1.48 5.93833 0.184998 9.275 0.184998C11.7483 0.184998 13.7317 0.838331 15.225 2.145C16.7183 3.42833 17.465 5.16667 17.465 7.36C17.465 9.43667 16.8233 11.0467 15.54 12.19C14.2567 13.31 12.5533 14.0567 10.43 14.43L10.08 17.265H7.245ZM6.23 25V20.205H10.92V25H6.23Z" fill="white"/>
</svg>
