<svg width="62" height="30" viewBox="0 0 62 30" fill="none" xmlns="http://www.w3.org/2000/svg">
<path d="M29.5566 9.48047H30.834V18H29.5566V9.48047ZM30.1543 16.7754H33.1543V18H30.1543V16.7754ZM34.2746 9.48047H35.552V18H34.2746V9.48047ZM34.884 16.7637H37.9895V18H34.884V16.7637ZM34.884 13.1543H37.6965V14.3848H34.884V13.1543ZM34.884 9.48047H37.9895V10.7168H34.884V9.48047ZM40.6977 9.48047H41.7172L43.7152 18H42.4027L41.2074 11.8184L40.0121 18H38.6996L40.6977 9.48047ZM40.018 15.2051H42.4438V16.4062H40.018V15.2051ZM45.5504 16.7754H46.8746C47.0738 16.7754 47.2262 16.7168 47.3316 16.5996C47.441 16.4785 47.4957 16.3086 47.4957 16.0898V11.3906C47.4957 11.1719 47.441 11.0039 47.3316 10.8867C47.2262 10.7656 47.0738 10.7051 46.8746 10.7051H45.5504V9.48047H46.9332C47.3238 9.48047 47.6578 9.55273 47.9352 9.69727C48.2125 9.8418 48.4234 10.0527 48.568 10.3301C48.7125 10.6035 48.7848 10.9355 48.7848 11.3262V16.1543C48.7848 16.541 48.7105 16.873 48.5621 17.1504C48.4176 17.4277 48.2066 17.6387 47.9293 17.7832C47.652 17.9277 47.318 18 46.9273 18H45.5504V16.7754ZM44.7184 9.48047H45.9957V18H44.7184V9.48047ZM50.0809 9.48047H51.3582V18H50.0809V9.48047ZM50.6902 16.7637H53.7957V18H50.6902V16.7637ZM50.6902 13.1543H53.5027V14.3848H50.6902V13.1543ZM50.6902 9.48047H53.7957V10.7168H50.6902V9.48047ZM55.4961 13.1719H57.0488C57.2129 13.1719 57.3535 13.1426 57.4707 13.084C57.5879 13.0254 57.6758 12.9395 57.7344 12.8262C57.7969 12.7129 57.8281 12.5762 57.8281 12.416V11.5137C57.8281 11.3418 57.7969 11.1953 57.7344 11.0742C57.6758 10.9492 57.5879 10.8555 57.4707 10.793C57.3535 10.7305 57.2129 10.6992 57.0488 10.6992H55.4961V9.47461H56.9551C57.4121 9.47461 57.8027 9.55078 58.127 9.70312C58.4551 9.85156 58.7031 10.0723 58.8711 10.3652C59.043 10.6543 59.1289 11.002 59.1289 11.4082V12.4043C59.1289 12.8223 59.043 13.1816 58.8711 13.4824C58.7031 13.7793 58.4551 14.0059 58.127 14.1621C57.8027 14.3184 57.4121 14.3965 56.9551 14.3965H55.4961V13.1719ZM54.916 9.47461H56.1816V18H54.916V9.47461ZM56.8262 14.1328L58.0098 13.8633L59.3691 18H57.9863L56.8262 14.1328ZM31.5664 29.0879C31.1445 29.0879 30.7832 29.002 30.4824 28.8301C30.1816 28.6582 29.9512 28.4102 29.791 28.0859C29.6348 27.7617 29.5566 27.3711 29.5566 26.9141V22.5723C29.5566 22.1113 29.6348 21.7188 29.791 21.3945C29.9512 21.0703 30.1816 20.8223 30.4824 20.6504C30.7832 20.4785 31.1445 20.3926 31.5664 20.3926C31.9883 20.3926 32.3496 20.4785 32.6504 20.6504C32.9551 20.8223 33.1855 21.0723 33.3418 21.4004C33.498 21.7246 33.5762 22.1152 33.5762 22.5723V23.0938H32.2812V22.5723C32.2812 22.3809 32.2539 22.2188 32.1992 22.0859C32.1445 21.9492 32.0625 21.8457 31.9531 21.7754C31.8477 21.7051 31.7188 21.6699 31.5664 21.6699C31.418 21.6699 31.2891 21.7051 31.1797 21.7754C31.0742 21.8457 30.9922 21.9492 30.9336 22.0859C30.8789 22.2188 30.8516 22.3809 30.8516 22.5723V26.9141C30.8516 27.1016 30.8789 27.2637 30.9336 27.4004C30.9922 27.5332 31.0742 27.6348 31.1797 27.7051C31.2891 27.7754 31.418 27.8105 31.5664 27.8105C31.7188 27.8105 31.8477 27.7754 31.9531 27.7051C32.0625 27.6348 32.1445 27.5332 32.1992 27.4004C32.2539 27.2637 32.2812 27.0996 32.2812 26.9082V26.3867H33.5762V26.9082C33.5762 27.3652 33.498 27.7578 33.3418 28.0859C33.1855 28.4102 32.9551 28.6582 32.6504 28.8301C32.3496 29.002 31.9883 29.0879 31.5664 29.0879ZM34.4551 20.4805H35.7324V29H34.4551V20.4805ZM35.0527 27.7754H38.0527V29H35.0527V27.7754ZM40.5781 20.4805H41.5977L43.5957 29H42.2832L41.0879 22.8184L39.8926 29H38.5801L40.5781 20.4805ZM39.8984 26.2051H42.3242V27.4062H39.8984V26.2051ZM45.8457 29.0879C45.4004 29.0879 45.0195 29.0078 44.7031 28.8477C44.3906 28.6875 44.1523 28.4551 43.9883 28.1504C43.8242 27.8418 43.7422 27.4707 43.7422 27.0371V26.5977L45.0195 26.5918V27.0078C45.0195 27.2695 45.0898 27.4727 45.2305 27.6172C45.375 27.7617 45.5801 27.834 45.8457 27.834C46.0996 27.834 46.2949 27.7637 46.4316 27.623C46.5723 27.4785 46.6426 27.2754 46.6426 27.0137V26.2695C46.6426 26.0859 46.5938 25.9297 46.4961 25.8008C46.4023 25.6719 46.2832 25.5645 46.1387 25.4785C45.9941 25.3887 45.7949 25.2832 45.541 25.1621C45.5293 25.1582 45.5176 25.1543 45.5059 25.1504C45.4941 25.1426 45.4824 25.1367 45.4707 25.1328L45.3945 25.0977C45.0547 24.9336 44.7715 24.7695 44.5449 24.6055C44.3223 24.4414 44.1328 24.2188 43.9766 23.9375C43.8242 23.6562 43.748 23.3047 43.748 22.8828V22.4141C43.748 21.9883 43.8281 21.625 43.9883 21.3242C44.1523 21.0195 44.3906 20.7891 44.7031 20.6328C45.0156 20.4727 45.3926 20.3926 45.834 20.3926C46.2676 20.3926 46.6367 20.4727 46.9414 20.6328C47.2461 20.7891 47.4766 21.0215 47.6328 21.3301C47.793 21.6348 47.873 22.0039 47.873 22.4375V22.9004L46.5957 22.9121V22.4668C46.5957 22.2012 46.5293 21.998 46.3965 21.8574C46.2676 21.7129 46.0801 21.6406 45.834 21.6406C45.5723 21.6406 45.3711 21.707 45.2305 21.8398C45.0938 21.9727 45.0254 22.1602 45.0254 22.4023V22.9531C45.0254 23.1406 45.0723 23.3008 45.166 23.4336C45.2598 23.5664 45.375 23.6758 45.5117 23.7617C45.6523 23.8477 45.8457 23.9473 46.0918 24.0605C46.127 24.0762 46.1621 24.0938 46.1973 24.1133C46.2324 24.1289 46.2676 24.1465 46.3027 24.166C46.3184 24.1699 46.332 24.1758 46.3438 24.1836C46.3594 24.1914 46.373 24.1973 46.3848 24.2012C46.7168 24.3652 46.9844 24.5195 47.1875 24.6641C47.3906 24.8047 47.5625 25.0078 47.7031 25.2734C47.8477 25.5352 47.9199 25.875 47.9199 26.293V27.0371C47.9199 27.4707 47.8398 27.8418 47.6797 28.1504C47.5195 28.4551 47.2832 28.6875 46.9707 28.8477C46.6621 29.0078 46.2871 29.0879 45.8457 29.0879ZM50.791 29.0879C50.3457 29.0879 49.9648 29.0078 49.6484 28.8477C49.3359 28.6875 49.0977 28.4551 48.9336 28.1504C48.7695 27.8418 48.6875 27.4707 48.6875 27.0371V26.5977L49.9648 26.5918V27.0078C49.9648 27.2695 50.0352 27.4727 50.1758 27.6172C50.3203 27.7617 50.5254 27.834 50.791 27.834C51.0449 27.834 51.2402 27.7637 51.377 27.623C51.5176 27.4785 51.5879 27.2754 51.5879 27.0137V26.2695C51.5879 26.0859 51.5391 25.9297 51.4414 25.8008C51.3477 25.6719 51.2285 25.5645 51.084 25.4785C50.9395 25.3887 50.7402 25.2832 50.4863 25.1621C50.4746 25.1582 50.4629 25.1543 50.4512 25.1504C50.4395 25.1426 50.4277 25.1367 50.416 25.1328L50.3398 25.0977C50 24.9336 49.7168 24.7695 49.4902 24.6055C49.2676 24.4414 49.0781 24.2188 48.9219 23.9375C48.7695 23.6562 48.6934 23.3047 48.6934 22.8828V22.4141C48.6934 21.9883 48.7734 21.625 48.9336 21.3242C49.0977 21.0195 49.3359 20.7891 49.6484 20.6328C49.9609 20.4727 50.3379 20.3926 50.7793 20.3926C51.2129 20.3926 51.582 20.4727 51.8867 20.6328C52.1914 20.7891 52.4219 21.0215 52.5781 21.3301C52.7383 21.6348 52.8184 22.0039 52.8184 22.4375V22.9004L51.541 22.9121V22.4668C51.541 22.2012 51.4746 21.998 51.3418 21.8574C51.2129 21.7129 51.0254 21.6406 50.7793 21.6406C50.5176 21.6406 50.3164 21.707 50.1758 21.8398C50.0391 21.9727 49.9707 22.1602 49.9707 22.4023V22.9531C49.9707 23.1406 50.0176 23.3008 50.1113 23.4336C50.2051 23.5664 50.3203 23.6758 50.457 23.7617C50.5977 23.8477 50.791 23.9473 51.0371 24.0605C51.0723 24.0762 51.1074 24.0938 51.1426 24.1133C51.1777 24.1289 51.2129 24.1465 51.248 24.166C51.2637 24.1699 51.2773 24.1758 51.2891 24.1836C51.3047 24.1914 51.3184 24.1973 51.3301 24.2012C51.6621 24.3652 51.9297 24.5195 52.1328 24.6641C52.3359 24.8047 52.5078 25.0078 52.6484 25.2734C52.793 25.5352 52.8652 25.875 52.8652 26.293V27.0371C52.8652 27.4707 52.7852 27.8418 52.625 28.1504C52.4648 28.4551 52.2285 28.6875 51.916 28.8477C51.6074 29.0078 51.2324 29.0879 50.791 29.0879ZM55.0508 29H53.7734V20.4805H55.0508V29ZM58.1094 29.0879C57.6875 29.0879 57.3262 29.002 57.0254 28.8301C56.7246 28.6582 56.4941 28.4102 56.334 28.0859C56.1777 27.7617 56.0996 27.3711 56.0996 26.9141V22.5723C56.0996 22.1113 56.1777 21.7188 56.334 21.3945C56.4941 21.0703 56.7246 20.8223 57.0254 20.6504C57.3262 20.4785 57.6875 20.3926 58.1094 20.3926C58.5312 20.3926 58.8926 20.4785 59.1934 20.6504C59.498 20.8223 59.7285 21.0723 59.8848 21.4004C60.041 21.7246 60.1191 22.1152 60.1191 22.5723V23.0938H58.8242V22.5723C58.8242 22.3809 58.7969 22.2188 58.7422 22.0859C58.6875 21.9492 58.6055 21.8457 58.4961 21.7754C58.3906 21.7051 58.2617 21.6699 58.1094 21.6699C57.9609 21.6699 57.832 21.7051 57.7227 21.7754C57.6172 21.8457 57.5352 21.9492 57.4766 22.0859C57.4219 22.2188 57.3945 22.3809 57.3945 22.5723V26.9141C57.3945 27.1016 57.4219 27.2637 57.4766 27.4004C57.5352 27.5332 57.6172 27.6348 57.7227 27.7051C57.832 27.7754 57.9609 27.8105 58.1094 27.8105C58.2617 27.8105 58.3906 27.7754 58.4961 27.7051C58.6055 27.6348 58.6875 27.5332 58.7422 27.4004C58.7969 27.2637 58.8242 27.0996 58.8242 26.9082V26.3867H60.1191V26.9082C60.1191 27.3652 60.041 27.7578 59.8848 28.0859C59.7285 28.4102 59.498 28.6582 59.1934 28.8301C58.8926 29.002 58.5312 29.0879 58.1094 29.0879Z" fill="white"/>
<path d="M5.40242 9H0L2.8601 10.9254L2.82038 23.4627L3.019 24.1791L3.41623 24.9851L3.93264 25.6119L10.7254 30V28.0299V27.6716L10.6857 27.403L10.5268 27.0896L9.65285 25.8358L5.40242 23.1045V9Z" fill="url(#paint0_linear_13133_18)"/>
<path d="M19.0674 25.5224L12.1554 30V10.8358L12.1952 10.2985L12.3143 9.85075L12.4732 9.53731L12.8307 9.1791L13.228 9H23L20.1796 11.0597V14.4627L17.5579 16.1194V11.9552H14.8964V24.8507L17.5181 23.0597V19.6567L20.1399 18V21V23.6418L19.981 24.1791L19.8221 24.5821L19.4646 25.0746L19.0674 25.5224Z" fill="url(#paint1_linear_13133_18)"/>
<path d="M10.8048 9H6.7133L8.18307 10.0299V21.2687L10.8048 23.1045V9Z" fill="url(#paint2_linear_13133_18)"/>
<path d="M11 9V23L8.41176 21.1594V10.004L7 9H11Z" fill="white"/>
<path d="M4 8V7.01124H7.26687L5.42638 2.1573C8.12036 2.97008 9.8354 3.36789 8.09509 5.4382C9.48314 6.5937 10.1129 6.46824 10.9479 4.76404C8.9185 4.10736 9.83022 2.64025 11.5 0C13.198 2.55276 14.0925 3.95891 12.0982 4.89888C12.8537 6.38768 13.4242 6.6733 14.9049 5.4382C14.5524 5.22184 14.1687 4.85393 14.0767 4.04494C13.9847 3.23595 16.061 2.45551 17.5736 2.1573L15.7331 7.01124H19V8H4Z" fill="white"/>
<defs>
<linearGradient id="paint0_linear_13133_18" x1="11.5" y1="9" x2="11.5" y2="30" gradientUnits="userSpaceOnUse">
<stop stop-color="#926C47"/>
<stop offset="1" stop-color="#F8ECCD"/>
</linearGradient>
<linearGradient id="paint1_linear_13133_18" x1="11.5" y1="9" x2="11.5" y2="30" gradientUnits="userSpaceOnUse">
<stop stop-color="#926C47"/>
<stop offset="1" stop-color="#F8ECCD"/>
</linearGradient>
<linearGradient id="paint2_linear_13133_18" x1="11.5" y1="9" x2="11.5" y2="30" gradientUnits="userSpaceOnUse">
<stop stop-color="#926C47"/>
<stop offset="1" stop-color="#F8ECCD"/>
</linearGradient>
</defs>
</svg>
