<svg width="735" height="146" viewBox="0 0 735 146" fill="none" xmlns="http://www.w3.org/2000/svg">
<path d="M30.8579 31.0353V55.4353H67.8579C83.4579 55.4353 95.5246 59.3687 104.058 67.2353C112.725 74.9687 117.058 85.502 117.058 98.8353C117.058 112.969 112.458 123.902 103.258 131.635C94.0579 139.369 81.2579 143.235 64.8579 143.235H0.0579358V3.23534H107.458V31.0353H30.8579ZM64.6579 81.0353H30.8579V115.435H64.8579C79.1246 115.435 86.2579 109.502 86.2579 97.6353C86.2579 86.5687 79.0579 81.0353 64.6579 81.0353ZM263.641 124.635C249.507 138.635 231.774 145.635 210.441 145.635C189.107 145.635 171.374 138.635 157.241 124.635C143.241 110.635 136.241 93.502 136.241 73.2353C136.241 53.102 143.307 36.0353 157.441 22.0354C171.707 7.90202 189.507 0.835349 210.841 0.835349C232.174 0.835349 249.841 7.83535 263.841 21.8353C277.974 35.8353 285.041 52.9687 285.041 73.2353C285.041 93.3687 277.907 110.502 263.641 124.635ZM180.441 104.435C188.441 112.969 198.574 117.235 210.841 117.235C223.107 117.235 233.174 113.035 241.041 104.635C248.907 96.102 252.841 85.6354 252.841 73.2353C252.841 60.9687 248.841 50.5687 240.841 42.0353C232.841 33.502 222.707 29.2353 210.441 29.2353C198.174 29.2353 188.107 33.502 180.241 42.0353C172.374 50.4353 168.441 60.8353 168.441 73.2353C168.441 85.502 172.441 95.902 180.441 104.435ZM312.363 143.235V3.23534H343.163V58.6353H399.963V3.23534H430.763V143.235H399.963V87.0353H343.163V143.235H312.363ZM523.516 77.2353L557.316 3.23534H590.716L536.916 111.435C530.916 123.435 524.249 132.102 516.916 137.435C509.716 142.769 501.116 145.435 491.116 145.435C480.582 145.435 470.516 142.702 460.916 137.235L472.916 114.635C477.982 117.702 483.516 119.235 489.516 119.235C496.449 119.235 502.316 115.502 507.116 108.035L451.116 3.23534H485.516L523.516 77.2353ZM676.791 145.635C656.257 145.635 639.124 138.702 625.391 124.835C611.791 110.835 604.991 93.6353 604.991 73.2353C604.991 52.9687 611.857 35.8353 625.591 21.8353C639.324 7.83535 656.791 0.835349 677.991 0.835349C690.124 0.835349 700.324 2.83535 708.591 6.83534C716.857 10.702 724.724 16.302 732.191 23.6353L713.791 44.8353C707.791 39.3687 702.124 35.4353 696.791 33.0354C691.591 30.502 685.257 29.2353 677.791 29.2353C666.057 29.2353 656.324 33.502 648.591 42.0353C640.991 50.4353 637.191 60.8353 637.191 73.2353C637.191 85.502 640.991 95.902 648.591 104.435C656.324 112.969 666.057 117.235 677.791 117.235C685.257 117.235 691.724 115.902 697.191 113.235C702.657 110.569 708.457 106.435 714.591 100.835L734.191 121.835C726.591 129.969 718.324 135.969 709.391 139.835C700.591 143.702 689.724 145.635 676.791 145.635Z" fill="url(#paint0_linear_113_42)"/>
<defs>
<linearGradient id="paint0_linear_113_42" x1="368.653" y1="-24.7646" x2="362.653" y2="143.235" gradientUnits="userSpaceOnUse">
<stop stop-color="#4B5951"/>
<stop offset="0.989036" stop-color="#3D5246" stop-opacity="0"/>
</linearGradient>
</defs>
</svg>
